/* XPM */
static char *ed0c74d268b9435fd71d6ea7db3e657ccOAcM7TL2W4AfurM[] = {
/* columns rows colors chars-per-pixel */
"64 64 220 2 ",
"   c #CC0C0E",
".  c #D6090E",
"X  c #CE110F",
"o  c #CE0B12",
"O  c #CE0D1A",
"+  c #C60B12",
"@  c #D20714",
"#  c #D40D15",
"$  c #D90D15",
"%  c #D40E1A",
"&  c #D90C1B",
"*  c #D60618",
"=  c #CB1116",
"-  c #CE141D",
";  c #CE191E",
":  c #C5151E",
">  c #D31116",
",  c #D4111A",
"<  c #D9111C",
"1  c #D2191F",
"2  c #DA1117",
"3  c #D50D20",
"4  c #D80F20",
"5  c #CD1522",
"6  c #C71A23",
"7  c #CE1923",
"8  c #CB1C2A",
"9  c #D31622",
"0  c #D31B24",
"q  c #D31A2A",
"w  c #D91824",
"e  c #CC272A",
"r  c #D22326",
"t  c #D3242A",
"y  c #D12A2E",
"u  c #DA252A",
"i  c #CB2933",
"p  c #D32632",
"a  c #D32933",
"s  c #D82936",
"d  c #CE3639",
"f  c #CD3C3B",
"g  c #CE3035",
"h  c #D3343A",
"j  c #D43A3E",
"k  c #D93B3E",
"l  c #D03034",
"z  c #D43B42",
"x  c #DA3C41",
"c  c #D83740",
"v  c #D64245",
"b  c #D9474B",
"n  c #D54B4D",
"m  c #DB4B4D",
"M  c #D44647",
"N  c #D9524F",
"B  c #D64E50",
"V  c #DC4E52",
"C  c #DD4E59",
"Z  c #CF5457",
"A  c #D55455",
"S  c #DC5254",
"D  c #D65559",
"F  c #D9555A",
"G  c #D55C5D",
"H  c #DB5B5C",
"J  c #E14E5A",
"K  c #E15256",
"L  c #E2575B",
"P  c #DA615F",
"I  c #D25D61",
"U  c #DB5D63",
"Y  c #D95C68",
"T  c #CF6567",
"R  c #D56264",
"E  c #DB6264",
"W  c #D5646A",
"Q  c #DA646B",
"!  c #D46D6D",
"~  c #DA6A6B",
"^  c #DA726F",
"/  c #D66D71",
"(  c #DB6E72",
")  c #DD6671",
"_  c #D47272",
"`  c #DA7273",
"'  c #DC767B",
"]  c #D57C7D",
"[  c #DC7A7C",
"{  c #DA7D75",
"}  c #E16466",
"|  c #E26A6D",
" . c #E26C74",
".. c #E27474",
"X. c #E17779",
"o. c #E27B7C",
"O. c #E07977",
"+. c #DE827D",
"@. c #DA837B",
"#. c #E1817F",
"$. c #DC7C81",
"%. c #D67E80",
"&. c #E27F83",
"*. c #D68384",
"=. c #DD8283",
"-. c #DE8589",
";. c #DD8C8C",
":. c #D78B89",
">. c #DC918F",
",. c #DD8D91",
"<. c #DF9494",
"1. c #DC9A96",
"2. c #DF9298",
"3. c #DD9B9C",
"4. c #E38283",
"5. c #E18987",
"6. c #E28B8C",
"7. c #E2848A",
"8. c #E1908C",
"9. c #E18B91",
"0. c #E19296",
"q. c #E59599",
"w. c #E4999B",
"e. c #EA9B9D",
"r. c #E1A19C",
"t. c #DB9DA0",
"y. c #E299A0",
"u. c #DEA7A9",
"i. c #DBBAAE",
"p. c #DDB2B4",
"a. c #DEBBBC",
"s. c #DFB1BA",
"d. c #E5A0A1",
"f. c #E8A4A6",
"g. c #E4AEAC",
"h. c #EAABAC",
"j. c #E4A8A8",
"k. c #E0B1AF",
"l. c #E2AEB1",
"z. c #EFAFB2",
"x. c #EBAAB8",
"c. c #EBB3B6",
"v. c #E2BEB6",
"b. c #E4BBBC",
"n. c #E9B9BE",
"m. c #E8B5B8",
"M. c #F1B3BB",
"N. c #DAC4BD",
"B. c #EFC1BF",
"V. c #E0BCC2",
"C. c #DCCAC8",
"Z. c #D5DCDD",
"A. c #D8DCDF",
"S. c #E4C2C4",
"D. c #ECC4C3",
"F. c #EECAC6",
"G. c #EFC8C9",
"H. c #E5C7C8",
"J. c #ECD4CD",
"K. c #F1D3CF",
"L. c #EBD6D6",
"P. c #F3D6D6",
"I. c #F1DBDA",
"U. c #F1CACB",
"Y. c #E9E0DB",
"T. c #F1E1DF",
"R. c #D6DBE1",
"E. c #DADEE4",
"W. c #DCD9E4",
"Q. c #DDE1E6",
"!. c #DEE2E9",
"~. c #E2E4E6",
"^. c #EEE2E3",
"/. c #E2E5EB",
"(. c #E6E9EE",
"). c #ECECEE",
"_. c #EAE3E8",
"`. c #F5E6E3",
"'. c #FBECE6",
"]. c #F5EDEA",
"[. c #F9EDEC",
"{. c #F7EBE7",
"}. c #EEF6EC",
"|. c #FCF1EE",
" X c #F9F1E5",
".X c #E7ECF1",
"XX c #ECEFF4",
"oX c #EEEFF5",
"OX c #EAEDF2",
"+X c #F8EFF9",
"@X c #EEF1F6",
"#X c #EFF1F6",
"$X c #EEF1F6",
"%X c #EDF1F4",
"&X c #ECF5F8",
"*X c #F0F1F6",
"=X c #F3F3F5",
"-X c #F6FBF5",
";X c #FBFBF6",
":X c #F2F3F8",
">X c #F7F7F9",
",X c #F5F6F9",
"<X c #F9F7FA",
"1X c #F7F8F9",
"2X c #F7F8FB",
"3X c #F6FDFD",
"4X c #F6FAFB",
"5X c #F8F9FA",
"6X c #F9FAFB",
"7X c #F9F9F9",
"8X c #FDFDFB",
"9X c #FDFDFA",
"0X c #FCFAFC",
"qX c #FBFCFD",
"wX c #FAFDFD",
"eX c white",
"rX c #FFFFFE",
"tX c #FDFDFE",
"yX c #FEFEFE",
"uX c #FAF7F5",
/* pixels */
"#X#X#X#XXXXXXXXXXXXXXXOXOXOXOXOXOXOXOX.X.X.X.X(.(.(.(.(.(.(.(.(.(././././././././.~.~.~.!.!.!.!.!.!.!.!.!.!.!.E.E.E.E.E.E.E.E.E.",
"#X#X#X#XXXXXXXXXXXXXXXOXOXOXOXOXOXOXOX.X.X.X.X(.(.(.(.(.(.(.(.(.(././././././././.~.~.~.!.!.!.!.!.!.!.!.!.!.!.E.E.E.E.E.E.E.E.E.",
"#X#X#X#XXXXXXXXXXXXXXXXXOXOXOXOXOXOXOX.X.X.X.X.X.X.X(.(.(.(.(.(.(.(.(./././.~.~.~.~.~.~.!.!.!.!.!.~.!.!.!.!.!.E.E.E.E.E.E.E.E.E.",
"#X#X#X#X*X*X#XXXXXXXXXXXXXoXoXOXoXoXoX.X.X.X.X.X.X.X.X(.(.(.(.(.(.(.(.(.(.(.~.~./.~.~.~.~.!.!.!.!.~.~.!.!.!.Q.Q.Q.Q.Q.Q.!.E.E.E.",
"#X#X#XXXoXoXoXXXXXXXoXoXoX.X%X.X(.OX(.OXOXOXOX.X.X(.(.(.(.(.(.(././././././.~.~./.~.~.~.!.!.!.!.Q.Q.!.~.~.~.!.!.!.!.!.!.E.E.E.E.",
"#X#X#X2XqXqXqXqXqXqXqXqX7XuXb.n.m.b.G.7X7X7X7X7X7X7X7X7X7X7X7X7X7X7X7X7X7X7X;X;X7X2X2X2X=XD.m.m.n.b.7X7X7X2X2X2X,X,X,X,XXXE.!.E.",
"#X#XXXqXeXeXeXeXeXeXeXeXeX0X  @ # # m eXeXeXeXeXeXeXeXeXeXeXeXeXeXeXeXeXeXeXeXeXeXeXeXeXeXk # $ # r eXeXeXeXeXeXeXeXeXeX%XE.Q.E.",
"#X#X#XeXeXeXeXeXeXeXeXeXeXeXo # # % S eXeXeXeXeXeXeXeXeXeXeXeXeXeXeXeXeXeXeXeXeXeXeXeXeXeXk , $ % y eXeXeXeXeXeXeXeXeXeX%XE.E.E.",
"#X#X#XeXeXeXeXeXeXeXeXeXeXeXo # , , S eXeXeXeXeXeXeXeXeXeXeXeXeXeXeXeXeXeXeXeXeXeXeXeXeXeXk > # % a eXeXeXeXeXeXeXeXeXeXoXZ.E.E.",
":X*X:XeXeXeXqX3X3X3X8X8X8X-X. # # o S 0XqX0X3X3X3XeXeXeXeXeXeXeXeXeXeXeXeXeX3X0X3X8X8X8X-Xk # $ # a ;X8X8XqX0X0X0XeXeXeX).Z.Q.E.",
":X*X:XeXeXeX8XqX7X[.|.|.|.*Xe.w.q.w.x.}.'. X[.'.3X;XeXeXeXeXeXeXeXeXeXeXeXeX0X<X{.|.|.|.=Xf.e.w.e.f.=X|.|.[.'.2XeXeXeXeX).Z.Q.E.",
":X*X:XeXeXeX0XqXD.+ o o @ -.o @ # o S h * o o i [.eXeXeXeXeXeXeXeXeXeXeXeXeX3XT.5 o o o E k # # o p O.o o $ : P.qXeXeXeX).Z.Q.E.",
"*X:X*XeXeXeXeX;XF.@ % % % 0.@ % , % K j $ % > r =XeXeXeXeXeXeXeXeXeXeXeXeXeXeX`.9 % % % E x % , % a X.% % % - P.eXeXeXeX).E.!.!.",
"*X:X*XeXeXeXeX;XG.@ % % % 0.@ % % % K j # % , r =XeXeXeXeXeXeXeXeXeXeXeXeXeXeX`.9 % % % } x % , % a X.% % % 5 P.eXeXeXeX).A.!.!.",
"*X:X*XeXeXeXeX;XG.@ % % % 0.@ % % % K j # % , r =XeXeXeXeXeXeXeXeXeXeXeXeXeXeX`.9 % % % } x # , % a X.% % % 5 P.eXeXeXeX).Z.Q.!.",
"*X*X#X3X;X;X;X-XL.G E E P s.I Y R G -.' G E R ! =X8X8X8X0XqXeXeXeXeXeX8X8X8X;X`.R E E E 0.o.I I U ` r.P E Y R ^.;X8X8X0X(.Z.Q.!.",
"*X*X#Xh.7 7 7 9 ] ; - - - 0.: 6 7 7 H z - 0 7 a E 7 9 9 i L.0XqXeXeXc.5 5 5 9 ! i - - - ~ b 6 1 ; f { 1 9 q 8 W 5 5 5 5 a.R.!.!.",
":X:X*Xg.& & < . [ o % % # ,.@ , & , S j & < % r H # , , 0 K.0XqXeXeXz.O % % & P 7 % % % E x % % - s ' # % 3 1 H # % % % v.R.Q.!.",
":X:X*Xh.# , $   X.# , , % 9.$ # , , L f > , - t L # # # 0 P.0X;XeXqXh.# # # , P < % % % E x % % = s ' > % = - Y # # # # i.W.Q.!.",
":X:X:Xj.# % & $ ' @ , , # ;.@ % , & F f > % 4 t G # > > r J.qXqXqXeXz.# , , & T 0 , , , Q x 9 & , a [ , % 3 5 I # , > # v.R.~.!.",
":X:X:XB.S K V m q.n C C V j.m B V m &.( N V V P 5.V C C U I.;X;X7X7XD.V S S V :.H C C C 6...B m V E w.S S J B *.V S S V C.R.~.!.",
",X,X:XS.Z F D A 3.A F F D l.D D F D -._ D D F R 6.D F F U d.H H F H ,.D F F D ;.G D D D 9.' F D D ~ 3.D D F D :.D D F A C.A.!.!.",
",X,X:Xg.# $ % $ X.@ % % % 0.# $ # % K c $ % # r H % % % 0 [ $ # $ # Q # $ $ $ E 0 % % % } c $ % & s X.# # & > G # # # # V.Z.~.!.",
",X,X:Xl.O # % # ' @ , , % 2.@ % % % S z % % > r H % , , 0 $.% , % % Q O % % # E 9 , , , E x % % & a X., % % = G # % % # V.Z.~.!.",
",X,X,Xg.# $ , @ ' o % % % 0.o , > # S j > % # t H % % % 0 [ @ # # $ Q # # # $ E 0 % % % E c # % % a ' # # & - G $ % % $ b.Z.!.!.",
"2X:X2Xm.e t t u @.r r r t 2.r t t u W n t t y f ! t r r h :.t t t u _ e t t y _ l t r r ' A r t u v =.t r r e ! r r r r N.E.!.!.",
"2X:X,X,X'.].].].I.$.[ [ +.S.@.o.+.+.f.1.o.=.4.6.h.#.#.#.5.M.+.4.&.#.u.=.&.4.o.g.5.o.[ [ h.w.+.$.+.8.m.4.&.[ &.^.{.[.[.[.~.W.Q.!.",
",X:X,X0X8XeX2X0XF.o % % % <.@ , , % F j , % % r H % % % 0 [ # & = & Q % % % & G 9 , % % E x % % > a ' # # $ 5 P.;XeXeXeX).E.~.!.",
",X,X2XeXeXeXeX;XG.o % % % 0.@ % # % S j # % , r H % , , 0 [ & % % % Q % % % # E 0 , , , E x # % & s X.% % % - P.eXeXeXeX).A.!.!.",
",X,X2XeXeXeXeX;XG.o , , % q.@ % % % K j > , # r H % , , 0 [ % % % % Q % % % $ E 0 , , , E j # % & s o., % # - P.eXeXeXeX).A.!.!.",
",X,X2XeXeXeXeX;XG.- 9 9 9 q., 9 1 9 F z , 5 9 y E 9 1 1 t $.9 9 9 1 Q 9 9 9 1 Q r 1 1 1 Q v 1 9 9 h o., 9 9 8 P.qXeXeXeX).A.!.!.",
":X,X2XeXeXeXeXqX].D.D.D.D.Y.( ( _ _ 2.*.! / _ ' 3./ ` ` ' u.! ` / _ t./ ( / ` t._ ` ` ` 3.;._ ( / *.I.D.D.D.S.=XqXeXeXeX).E.!.~.",
":X,X2XeXeXeXeXeX;X3XeXeXqXuXO % o @ S j # % & e H # % % 0 ' o @ o o R o # $ & W ; % % % E x # @ # i ;XeXeXqXqXqXeXeXeXeXOXE.!.~.",
":X,X2XeXeXeXeXeXeX0XeXeX8X;Xo & # # S k $ , , r H # % % 0 [ $ $ > # Q % % % # R 1 % % % } x > & > y ;XeXeXqXqXqXeXeXeXeXOXE.!.~.",
"2X2X2XeXeXeXeXeXeXeXeXeXeX-XO > , % S j # , , r H , % % 0 ] $ & , & W O % % & E 9 % % % | k % & > p eXeXeXeXeXeXeXeXeXeXoXE.~.~.",
"2X2X2XeXeXeXeXeXeXeXeXeXeX;X* # % & F z % % 3 t I & % % q $.# % % @ W % & 4 % T 0 % % % Q z % , % a 8XeXeXeXeXeXeXeXeXeXoXE./.~.",
",X,X,XeXeXeXeXeXeXeXeXeXeX&X;.;.9.;.j.t.;.,.,.<.g.;.9.9.0.a.;.6.;.;.p.,.9.,.6.p.>.9.9.9.p.w.6.,.;.w.;XeXeXeXeXeXeXeXeXeX).E.~.~.",
",X,X,X0XeXeXeXeXeXeXeXeXeX7X- 0 - 5 F z 1 5 9 y U 9 9 9 t $.1 9 - - Q 5 9 9 9 W r 9 9 9 Q v 9 9 5 g 8XeXeXeXeXeXeXeXeXeX).E.~.~.",
",X,X,XqXeXeXeXeXeXeXeXeXeXeX  % , % K j 2 , # r H % , , 0 [ $ # & & Q % % % $ E 9 , , , E k # % % a eXeXeXeXeXeXeXeXeXeX).E.~.~.",
",X,X,XqXeXeXeXeXeXeXeXeXeXeX  , # % S j # % > r H % , , 0 [ % # & # Q O % % # E 9 , , , E x # % % y eXeXeXeXeXeXeXeXeXeX).E.~.~.",
",X,X,XeXeXeXeXeXeXeXeXeXeX;Xo , % # S j , % , r G % % % r ] # % = % Q % % % % R 7 % % % E k > # & i 8XeXeXeXeXeXeXeXeXeX).E./.~.",
",X,X,XeXeXeXeXeXeXeXeXeXeX-X` ..` ^ q.] E R E ^ <.E E E ~ u.E E E R 2.R E E E 1.~ E E E 0.6. .| ` =.0XeXeXeXeXeXeXeXeXeX).E.(.~.",
",X,X,XeXeXeXeXeXeXeXeXeXeX0XqX3XqXqX7XG j c c n ' k j j b ,.k c c j $.j c c c ] M j j j $.7XqX;XqX8XqXeXeXeXeXeXeXeXeXeX).E.(.~.",
",X,X,XeXeXeXeXeXeXeXeXeXeXeXeX8X8XeX8Xj , % % t H % , , 0 [ @ % = % ) = % % % E 0 , , , H ;X0X8XeX;XeXeXeXeXeXeXeXeXeXeX).Q.(.~.",
"=X=X,XeXeXeXeXeXeXeXeXeXeXeXeXeXeXeXeXz , - , r H % , , 0 [ & # # % Q O % % % Q 0 , , , P 8XqXeXeXeXeXeXeXeXeXeXeXeXeXeX).E.(.~.",
"=X,X,XeXeXeXeXeXeXeXeXeXeXeXeXeXeXeXeXj < , > r H % , , 0 [ $ # $ # Q % & # $ E 1 , , , P 8XqXeXeXeXeXeXeXeXeXeXeXeXeXeX).E.(.~.",
",X,X,XeXeXeXeXeXeXeXeXeXeXeXeXeXeXeXeXA h h h n ' h h h M ,.f j h h [ d h h h ' z h h h ] 8XqXeXeXeXeXeXeXeXeXeXeXeXeXeX).E./.~.",
",X,X,XeXeXeXeXeXeXeXeXeXeXeXeXeXeXeXeXqXqX3X2X0X9.n m m S q.M m m m =.n m m V y.7X;X;X;X0X0XeXeXeXeXeXeXeXeXeXeXeXeXeXeX).Q.(.~.",
",X,X,XeXeXeXeXeXeXeXeXeXeXeXeXeXeXeXeXeXeXeXqX3XQ $ $ $ w %.# % < $ R # # $ # [ 3XeXeXeXqXeX0XeXeXeXeXeXeXeXeXeXeXeXeXeX).~.(.~.",
",X,X,XeXeXeXeXeXeXeXeXeXeXeXeXeXeXeXeXeXeXeX8X3XE , % % 0 o.= # - & Q % % % o [ qXeXeXeXeXeXeXeXeXeXeXeXeXeXeXeXeXeXeXeX=X~.(.(.",
"2X2X2XeXeXeXeXeXeXeXeXeXeXeXeXeXeXeXeXeXeXeX0X3XE , % % 0 [ < . # & W % % % $ [ qXeXeXeXeXeXeXeXeXeXeXeXeXeXeXeXeXeXeXeX=X~.(.(.",
"2X2X2XeXeXeXeXeXeXeXeXeXeXeXeXeXeXeXeXeXeXeX7XqX .7 9 9 p ] 0 0 q 7 / 7 9 7 0 *.3XeXeXeXeXeXeXeXeXeXeXeXeXeXeXeXeXeXeXeX=X~.(.(.",
"2X2X2XeXeXeXeXeXeXeXeXeXeXeXeXeXeXeXeXeXeXeXqXqX<X;X8X8X;XH.+.4.7.-.L.8X8X8X8XuXqXeXeXeXeXeXeXeXeXeXeXeXeXeXeXeXeXeXeXeX=X~.(.(.",
",X7X7XeXeXeXeXeXeXeXeXeXeXeXeXeXeXeXeXeXeXeXeXeXeXeXeXeXeXr.# , % % c.eXeXeXeXeXeXeXeXeXeXeXeXeXeXeXeXeXeXeXeXeXeXeXeXeX=X~.(.(.",
",X7X7XeXeXeXeXeXeXeXeXeXeXeXeXeXeXeXeXeXeXeXeXeXeXeXeXeXeXd.# , % % c.eXeXeXeXeXeXeXeXeXeXeXeXeXeXeXeXeXeXeXeXeXeXeXeXeX=X~.(.(.",
",X7X7XeXeXeXeXeXeXeXeXeXeXeXeXeXeXeXeXeXeXeXeXeXeXeXeXeXeXd.# , % % c.eXeXeXeXeXeXeXeXeXeXeXeXeXeXeXeXeXeXeXeXeXeXeXeXeX=X/..X(.",
"7X7X7XeXeXeXeXeXeXeXeXeXeXeXeXeXeXeXeXeXeXeXeXeXeXeXeXeXqXu.# + & # k.eXeXeXeXeXeXeXeXeXeXeXeXeXeXeXeXeXeXeXeXeXeXeXeXeX=X/.(.(.",
"7X7X7XqXeXeXeXeXeXeX7X8XeX7X7X7X7X7X7X7X8X8XqXqXqX7X7X7X<X^.F.F.U.F._.7X7X7X7X7X7X<X<X<X2X2X2X2X2X2X2X,X,X,X,X,X,X,X,X,X*X(.(.(.",
"7X7X7X7X7X7X7X7X7XuX=X7X7X=X=X=X=X=X=X=X=X=X=X=X*X*X*X*X=X:X<X@X&X%X*X*X*X*X*X*X*XXXXXXX#X#X#X%XOXOXOXOXOXOXOXOXOXOXOX).).(.(.(.",
"7X7X7X,X,X,X,X7X,X,X,X,X,X,X,X,X=X=X=X=X=X=X=X=X=X=X=X=X=X*X*X=X*X*X*X*X*X*X*X*X*X=X=X=X#X#XOXOXOXOXOXOXOXOXOXOXOXOXOXOXOX.X(.(.",
"2X2X7X,X,X,X2X7X,X,X,X,X,X,X,X,X=X=X=X=X=X=X=X=X=X=X=X=X=X=X*X*X*X*X*X*X*X*X*X*X*X=X=X=X#X#XOXOXOXOXOXOXOXOXOXOXOXOXOXOXOX.X(.(.",
"7X7X7X,X,X,X2X2X,X,X=X=X=X,X,X,X=X=X=X=X=X=X=X,X=X=X=X=X=X=X=X*X*X*X*X*X*X*X*X*X*X=X=X=X#X#XOXOXOXOXOXOXOXOXOXOXOXOXOXOXOX.X(.(.",
"7X7X7X,X,X,X,X,X,X,X,X,X,X,X,X,X,X,X,X,X,X,X=X=X=X=X=X=X=X=X=X=X=X=X*X=X*X=X*X*X*X*X*X=X#X#X#XoXXXXXOXOXOXOXOXOXOXOXOXOXOXOX.X.X",
"7X7X7X,X,X,X,X,X,X,X,X,X,X,X,X,X,X,X,X,X,X,X=X=X=X=X=X=X,X=X=X=X=X=X=X*X=X=X=X=X*X*X=X=X*X*X#XXXXXXXXXOXOXOXOXOXOXOXOXOXOXOXOXOX"
};
