/* XPM */
static char *_1c6a0fc55934207b2be30a760d01185T0rvziNWpaEVCg0o[] = {
/* columns rows colors chars-per-pixel */
"153 102 74 1 ",
"  c #444442",
". c #454543",
"X c #464644",
"o c #474745",
"O c gray28",
"+ c #484846",
"@ c #494947",
"# c #474749",
"$ c #484848",
"% c #494949",
"& c #4A4A48",
"* c #4B4B49",
"= c #48484A",
"- c gray29",
"; c #4B4B4B",
": c #4C4C4A",
"> c #4D4D4B",
", c #4A4A4C",
"< c #4B4B4D",
"1 c #4B4D4C",
"2 c #4C4C4C",
"3 c gray30",
"4 c #4C4E4D",
"5 c #4E4E4C",
"6 c #4F4F4D",
"7 c #4C4C4E",
"8 c #4D4D4F",
"9 c #4D4F4E",
"0 c #4E4E4E",
"q c gray31",
"w c #4E504F",
"e c #50504E",
"r c #51514F",
"t c #4E4E50",
"y c #4F4F51",
"u c #4F5150",
"i c #505050",
"p c #515151",
"a c #505251",
"s c #525250",
"d c #535351",
"f c #505052",
"g c #515153",
"h c #515352",
"j c gray32",
"k c #535353",
"l c #525453",
"z c #545452",
"x c #555553",
"c c #535355",
"v c #535554",
"b c gray33",
"n c #555555",
"m c #545655",
"M c #565654",
"N c #575755",
"B c #555557",
"V c #555756",
"C c #565656",
"Z c gray34",
"A c #565857",
"S c #585856",
"D c #595957",
"F c #575958",
"G c #585858",
"H c gray35",
"J c #585A59",
"K c #5A5A58",
"L c #5B5B59",
"P c #5A5A5A",
"I c #5B5B5B",
"U c #5C5C5A",
"Y c gray36",
"T c #5D5D5D",
/* pixels */
"ssr6>>>>&>6szMMMzssszzssz66sszsrrrrrsssrrsssrrsz&6rr66sMSzzMzr6rrsszMzsrSSzss6>666sss6<6cMLMccsss66ssMs66666yMsss>&>6>>6>&&>66666rssr6rM6>>666>@>6ssrrrrs",
"zzzsrrrsrsszMMMMMMzzzzssz66zzzzrrrrrsssrrszMzzss6rssrrszMMSMzzssrsszzzsrMMsszr>6sssss666ysMMMMMMMcsssscssssssMs6r>&66>>6>>>>66>>6ssrrszz>>>666>&6rsssssrs",
"zzzssszMsssszzMSSSMMzzsszrrzMMMsrrrrssssszMSMzzssszssrrssSLMzMMsssszzssrzzsszr>6MMssy6666sMMMMMMssMssscMMMMMMMs66>&66>>>6>>666>&>rr>6zzr>>6666>>rsssrrsrs",
"zzzsszMMsrrrrszMSSMMzzsszrsMSSMrrrssssssMMMMzzzzzzssssrrrzSMzzzzsssssrr6rsrrs6>6MMss6<<&6sssMMss6ssMsccMcccMMcssr666r6>66666rr6>>6r>6rr6>66r6666rssr66rrr",
"MMMzzzMSMMssrsszMMMMzzzzMszMSSM6rrsssssszzzzzzzzzs66rrrrrszSSzzMzssrr66>>rr66>>sccss66666666y66&66ysMMMMsssccMMMsrrrrrrr666rrsrrrssssrrsrrrrr6rrrss66666r",
"zzzzzzzMMzsssszzzMMMMzMMMszMMSMr6rrsrrsssszMMzsrsr>>6rsssrzLLMzMssrrr66>>6666>>ssssssMcs6666sy666<&<ssMMsscMMssMzzssrrrrr66rsssssszMzrrzsrrrrrrrrssr66rrr",
"sszzzzzzssssszzMzMMMzzzMzszMSLSrrrssssssrrszMzs6sr66rssssszSLLMzrrrrrr666666sr6sssssMLLMs66sssy66&&&6ysssssMMsssMMzzsrrrsr6rrsssrrsssssrsr66rrrrrszrrrrrr",
"zzMMMMMMzzzzzzzzzzMzsssszszMSULsrszzsszzsrrszzsrrr6rrszzrszMSUSsrrrsssrrr6>6zzrrssssMLLMs66yss6666<6666666sMMs6szMMzssr6zsr6rrsr>rr6rMz6r6>6rsrrrsssrrrrr",
"zMMzsszMszzssszzMzzssssszzzzMSLSsrszszMz666666rr6rrrrrszzsszMMMzzsszsrrs>6rsssrrscMMZZMZ6&csss&s666666666sssMMs66sMLSsrrrzrsr6srrrrsMMMzzsr6rrr6sssrrrssr",
"szzzsszMzzzssszMMMzsssssszsszSSSzszMzMMzr6666rrrrrrsszzzSSMzzssrszMMzr>>66rrrrrrysMLLZMcs6ssss66666666666ssssss6rsMSMsrrszrssrzs66rszMMzMzrrssr66rrrsssss",
"szzzzzMMMzzsszMSMMzssrrrsssszSSSsrsMzzMsrrr66rrsrrrszzzsSSMzsrrrMMMsssssr6666666sMZLLMssMs6sssy6>666rrr66szzssrr66szMzzzzzrss6srrrrszMMMzs66ssr66rszzzzsz",
"zzMMMMMSMMMzzzMSMMzzsssrrsMMSLLSsrszszzsssrrrrssrrrszsrrzMMzsrrrMMzr6szsr66>66rsMMMMZMssss&ss6s<66rssrr6rszzzzss6>6szsrr6s6r6>r6ssszMMSSsr66szsrrrsMMMzzs",
"zMMMMMMMMMMMMzMMMMMzzzssrsMSLLLSzsszszMsssrrssszrszzsrrrzMMMsr66rzMzss6&rr666sMSLLZMMMMssM6MMyc6rssssrr6rssszMzsr66r6>&@@66sr>sssszzMMSSzsrrzMMzrrsszzsss",
"zzzzzzzszzMMMzzzMMMMzzzs6sMSSLSMzrrsrszsssssssszzzMzsrrsszMMMzzsrssszzsr6>>>6sMSZZMMMMsssssMMyy6ssssssrr6rrrsMzs6>>6>&&&>sszr6ssrrzzMMMMzsrrszMzssrrszssr",
"zzzzzzssszzzzzMMMMMMzzss6sMMMSSMs6rr6rsrrrsssszzMMzzsszzrsszMMMzzsrrszMS>>&&>rsMMMMMMMsysyssss66ssssssss6rrrszzz66>>>>6sszrsr6sr6rzMMzzMzsrrrszzzsrrszzsr",
"MzzMMzzssssszzMSMMMMzssrrzMzzMSSsrrsrrs6rrrsszzzSMssszzzzssszzsszrrssr6rr6666rzMMssssMcsc6cssM6srssssszzrszsszMMMsr6&&6sr6&>rrzs6szMMMMMssrrrsMSsr66rssrr",
"szzzzzzMszMzzMMMszzzzsr6r6sMLLMMscMssssscMMMsssczMMzssssszzssMMssr66rr6>srrrsMzsssssssMMMMMsssssrsssssrrrrszzMzzMsssyscMcsss66ssrrszMMzszr>>rzMMrsrrrrr6r",
"rsssssszszzszMMzsszzsrr6rrsMMMMMMcysMMMscMMMMsssrszzssssrszsrszzzsrrrsszrszszzzsMMsssssssMssyss6ssssrrrrrrrszzzzMMssyscMMMssy6sy666rszzzss66rzzrssrrrrrr>",
"rrssrrsszzsszMMzzzzzzsssrrssMcMMcMMM66sLscMMMMss>rzMzsssrszzsrzSMzrrrzMM6sMzssssMMMMcssysssssss6zsrrrrsszssszMMzLMMssssMMMssssss66>>6rszssr>6zs6srrsr6>6>",
"rsssssszMzsszMMzzzzzzzzzsssssscMZs66sMs6ssMMZMMcrrszzzsssrzMMzMUMzrrssssrzMzssssMMMMMMsssssssss6ssrrrrszzssszMzzMMMssssssMMsssssrr6>6rszss6&>ss66>>sr&@>>",
"rszzsssszssszMMzssssrsssrscss6ss&6ss66sLsscMMMMMMsrrsssrsrsMSMSLMs6rszr>szssszzzMMMMMMsssyy6yy6srrrrrsszzs66rssrMMcMsssssMMMs66srrr6rrszrr6@&rr6>&>rr&O@&",
"rssssrsszsszMzzzssssrrrr6sssss66s666sMs6ssscMLLLMs6>6rr6srszMMMMzr6rzzs6ss6>6szzsMMMMss6666666ys66rrsssszsr66rrsssscMssssMLMs6y66rrsssss>6>>66>&>&>rr>@&&",
"rssssrrssssMMzzzzzzssssssssssssssMMss6sscsscMMMMzsr66666szzsszzzzs66rszzsr6>6szzsMMMMssss66666ssrrrrsssszzs666rsssssMMMsMMMMMsssrszzsrrr6>>66&@@>>6666>&6",
"rszzsssssszMMzzzsssssrrrzzcsMMMMssyyscMMMcscMMMMszzs6>66sMMs6rzzzsr>>rzSzzsrrzMSycMZMscMssssssscrrrrrrsszsr6>>6s666scMMMMsscMMMczMMMzr66z6>>>@O@>66>>66>r",
"rrsrrrrszssszMzzzsszzrrrssMMMMMMMssscMMMMMcssssMsssssr66rszzzMSLsMMsr&6SzMzrrrrzMMMsssMcMsssssssssrrr6>>r6>&&>6r6666sss6MMM6MLcLMSMzsssrsr6>&@&&&>666r6>r",
"ssssrrrsssrszzzszsszsrrsssMMssMMLZMMMMcsMMssssMMsssrrrrr6rszMMzszMzzMsrsMLMsMSzrMMMsssssMcssssssssrrr6>>@@&&>6rsMs6&6666MZMsMZsZzMMzzMs666666>>&>66>>666r",
"szzsrrrsrrrszzzsMzzzssszssMMssssMMMMMMMcccsssscMrrr66rrs>6rsMzsrMMzMSMrssSz6zLSssssssMMLLMssccsszssrr66>&&&&&>66s&OO<666MMLssMsMMMMMMzr&&>6szs6&>66>&>>66",
"ssssr6rsrrsszzzzzzsssssssssMcssssssMMMMMsssssssyrr666rrrr666rszzzMMzzsrz6zs>6sMS6666sMLYLLMcMMssssssrr66r6>&@@&&&&&&6ssssMZs6s6MMMMMzs>@@&6szzr>&>6>@@&>>",
"rsssrrrssssszzMMrsssrrr6sscMMMMMZZLLZMMcyy6sssssr666666rrr66>6szrzzszsszrsr6rrsLssssssMLYLMMMMcsssrsssrr6666>>>666yyssssssMs<yssszzzr666>>>rssr>@&>>@OO@&",
"rszzsssssssszzzMszzzsssrssssMMMMZLLLMMMMsy666ssMrr666666rrsr6>66rsssSSsrzs6sMz6rsssssssMYLMMMMcsssrrssrr>6szzsr6sssysssMssMs6sscsssr>&&>6>>6rrr6@@&&@OOOO",
"rszzzsrrrrssssszszzzzMMzzsssMMZZMMMMMMMMMs66ssMMrr66666rrrsssr666srsMSzszsrsMz66y66yyscZLLMMMMMMsssrrrr6rszMzs6>6yysscccs6Ms6ss6sr66&@@>6666rr66&@@&&OO@O",
"rszzsr666rrssrrrrsssszMMMssssMZZMMZMMcMMMsssMMssrr6>>6rsrrsszzs6&ssrrssMrMMszzss666yyssMMMMMMcMMzssrrr66zsssrr66ssMMLZcsy&Ms6sy&>&@&>>>r>6rrrr66>&@&&@@&@",
"rzMzzzzsrrszzzssrszMzszzzMMzzMSSMMMMMMcssssssss6css66ysMMsscMcss>>rzs6rssszzssrrr>@&>rrszsszzzzMMMssMMs6ssssssccsszzzssrsssssr>&6666rrss>6rrr6rz6rr>@O@>&",
"6szsssss6rrssssrrszzssszsMMMMSSMLMMMZZMMMMsssss6syy6666ssyysMcss&&>rssssrssrrrsz6>&>rszzzsszzsszMMMMMMssMMcsssMMssssszzzssssssr66666rsrrssssr6rz66r6>&&>>",
"rszzszzzrrssssssszzzsrssszMSSSSMLMMMMMMMMMsssMs66s666666s66sssss66>6szs6rrrrsszMzs66rssszzzzzsrsMMMMMMcsMcsssscMsssssszzszzssrrrr6rszMzsMsrr66rs666r66>>>",
"szzzzMMMszzzzzzzzzzsssszszMMSSMMMMMMMMMMMcsssMcsssss6666666sssssssrrsMz6rszzMMMMMzsrrrrrzzzzzsssMMMMcscMMccssscMzzzsssssssssr666rrrzSSMzMsr66rrsr666rr6>>",
"szzsszMzzzMMMMMMzzzssszMzzMMSSMMMMMccsMMMMssssMMMMMsssss666sssssrssrsMSzzzzMMMMMzsr66szssszsssrrcMMMsssMMMMMMMMMszzzzsssrsss6>>6zsszMSMzzsrrszzss6>>666>6",
"szzzzMMzzzMMMMMzMzssszMSSMMSSSSSMMMMMMMMMMMMcssMMMMssssss66sssysrsssszzzMzssszMMrsr66zzzrssssrr6sscssssssssssssssszzzzzsrrsrr666SMMMSMMMsrrrrzzss6&&>>>>6",
"zMMMMSMzzzMMMMzzMzsrszMSSMMSSSMSMMMMMMMMMMMMMccMcMMcsss6s6yssssszsszssrsMzsrszMMszzrrzzsszzsssr6sssss666sssy6sssssszzzzzssrrrrrrzMSSMMzzrrr66rrrs6&&&>>>6",
"zMMMMMzszzMMMMzzMzrrrsMMSMzSSMzzMMMMMMMMMcsMMMMMcMZMscs6s66sssscsrrzMzszsssszMMzrzzszMMszMMzzsr6sssssy66MssyyssMzzzssssszs6666666rzzzsrsssr66rsrr6&&&>>>>",
"rzMzzMSMzMMMzzzszzzzzzzzMSSSMMzMMMMMMMMMMMMMMMMMMMMMcsssy66ssscMzzzsssszzzsszzzzrrrszMMMMMMMSMsrsy666666ssssssMMMzzzzzzzzsrrrr6&>sMMzzzs>r6>6rrs66>&>6>&6",
"rzMzsMMzzzzMzzzszzzzzzMMMSSSMMMMMMMMMMMMMMMMMMMMMMZMMssssssssssMMzzzssszzzzzzzzzsrrrsMSSMSSSMzssss66666ssMssssccMMzzzzsssr66rr6>6szsrrrrrzr>>>>66>>&>66>6",
"szzsszMzzzzzzzzzzzzzzMMSMMMMMMMMMMMMMMMMMMcMMMMcMMMMMssyssssssMMMMzzzzzzsszzMzzsMss6sMLLMLLZMsssMsss666sMMsy6sMMMzzsssrrsr666rrrsssrrr666s6&>66r>>&&>666>",
"szzsszzzszzzzzzzzzzszzMSMMzzzzMMLZMMLLZMMMsMMMccMZMMcss6ss6sscMMMzzzzzzzsszzzzssMssssMLLZLZMssssMMMs66ysMMcs6sMMzzzzssrrr6666rrrssssss6>>r>&>66r>>&@&66>&",
"sssrszzzszzzzzzzzzzzzzMMSMzzMMMMZMMMZLZMMMccMMMMMMMsscsys66ssssMzzzzMMMzszzzsssssssssMLLLMMcssssMMMs666scMss6sMMszzzzsss66rrrrrrsrrsssr6rs6&&>>6>>&@&>>>>",
"ssrrsszzszzzzzzzzzzzzMMMSSMzMMMMMMMMMMMMMMcsMMMMMLMscMMsssysssssssszMMMzzzzsssszssssMMMLLZMMcssssMMcsy66ssssysccrszzr6666rsssr66sr6666666s6&&>>6>>&@&>>&>",
"zsrrsszzszzzzzzzszzMMMMMSMMzMMMMsMMMMMMMMMssscMMMLLMMZMsssssssssrrszMMzszzzsrrsssMccMMMZMMMMsssMsMMcss666sssssss6rssr6>>6rzzsr66sr666>>>&6>@>6rz6>&@&>6>&",
"zsrrsssszzzzzzzsszMMSSSSSMzzzzzscMZZMMMLZMsssMMMMLLZLLZsssssssssrrrsMMsrszzsrrsssMMMMMMMsMMMsssMsMcMMs666ssssssy6rzzsrrr6szzsrrrrrrsr>@@&6>@>6rz66&&&666>",
"ssMMMcsssMMMcMMsssMLYLLZMMMMMMMMMMMscMZLLMMMMMcsMMMZZMMc6&&6ssMMMMMsMMssssccsssssscMMMMMsccMMcsssyssMMs66ysss66srr666rrr>rzzsrrs6rssr6>&&&>6rrrrr&@&>&&>>",
"sMMMMMsssMMMMLMMssMLLLMMMMMsccssMMMMcMZLMMcMMMMsMMMLLMMM6666sscMMLMMLMcMsMMsssssssscMMMMsscMMcs6sssMMMssysssssssr66>>>>>rzzzsrrr6szsr6>&>&&6rrr66>>&&>>&>",
"sMMMMMMMMMMMMMMsMMMLLLZZLZMMMccsMssMMMMMMZLZMsyysMMMLLMMcsssscMMMLMMLMscsccsssssMcsMMMMMssMMMMs6ssMMMcssssssss66rrr6>>>6rsszzsssrszsr66>r>&>rr6>>66&&>>@6",
"MMMMMMMMMMMMccMsMZLLLLLLLLMMMscsMssMMMMcLLLZss66MMMMMMZMMMcssMMZMMMMZMsssssssscMcccMMMMMsMMMMMcs6sccssssssysss6&6rrr666rr66rszssrssrrrr6r6>>6>>>>rr>&&>&6",
"MMsMMMcssssMMMLLMMMLLLLLLLMcsssscsscMMMMMZMMsyssMMMscMMMMMMssMMLZLMMLMssssssssscssMMsssMsMMMMMMs6yssssssMsyyys6<>6rr6>66sr66rr66rr66rsr6r66>>&&>6666>@&r6",
"MsssssssssssMMMLMMMMLLILLLMMcsssMccMMMMMZMMs66ysMMMssMMMMMssssMMLLMMMMsssscsssssssMMsssMsscssMMs6yssssssMsssss66>6rr6666r6>>666666>>6sr6r666>&&6r>>6>&>ss",
"sssssssysysssssMMMMMLLYLILLZMMMMMMZZLLLLLLMs666sMZMssMMMMMcsyssMZLMcMsyssscccsssssccssMMsscssMss666ssssssssssss66rrsssrr66>>>6rr>6666rrrr666>&>6>>666>6ss",
"ssysscsss66sccMMMMMsMLILLLLMMMMMMZLLLLLLLMMsyssMMLZMMMMMZMMsysMMZLMsss6ssscMMMMMsssscMMMsMMcsMs6666yys66sy6666y666rszzzssr66>>6r&6sr>>rsr6>66>>>&66>>rsr6",
"666ysss66scMMsssLMcMLMMLMMccMMMMssMMMMMMsZM6s6LLZcscLLMMsMMMsssMMMMssssssMMMMMMsscMsssMZZMssMcss6666666<6sss66666rssszzsr6&&666>>6r6>>>>6&&>ss6@&6rrrsr6>",
"sysscMcssssMcssMMMMMMMLLZMMMMMMsMMMsssMMsMc6s6LMMsysMMMcssssccMMMMMsssssMMZLMMMMMMcsssMMMMccMMMsssy66<666666&&66rssszMzs6&OO>66>r666r66>&@@>rsr>&6r66r6>>",
"6ssssMMMsssssccMyMMssMLLLZMMZMMsMMMZMMcscMs6ssLMssyssscsss6sMZZMMMMssMMcMMLLZMMMMMsssMMMMMMMMMMsss6666666<<<&<66rssszMzs>@  &666sr>6rrr>&@&>rrr6&66>>66&&",
"6yssssMMcssssscMyccscMLLLMZMMMccssMMMMcsMcs<s6LMMssssssMcsssMLMMMMMssMMMcMZZMMMMMMMcsMMMMMMMMMcssss6666ys6666666rrsszzzs>&OO&6rrs6>>6r6>&>>6666>>6666rr6&",
"6ssssssMcsssssssss6sMMMZLMMMMMcsss6666scMs6&s6MsMMss6ysMMMMcMMMMccssccMMscccMcMMsMMMMssMMMMMMMMsssy666ysssssss66rrszzzsr>>>&&>6r66>&&>66>>>>>>>>>666rssr>",
"ssssscsMsssssssss66sMscMLMMMMsssMss666ysMMy6s6LMMMss66scMMMMcsMMssssssMMsssscMMMscMMsssMMMMMMMMMsss66yssssscMss6ssszMzrr>>>>>>>6666>&&6r&&>>&&>>>>>>6rrr>",
"MMsscMcsscscsss6syyssssMMMMMMMMMMMMMssy6MMs6c6LMMMssssscMMMMMsssssssscMMssysMMMMscsssscMMMMMscMMsssss66syssssss6srszzr666>>>6666666>&&6r>>>>>>>66>&>6rrr>",
"MMsscMsscccMMMs66ss66sMcsccMMMMLLZMsssscsss6s6csMMsssscMccMMMsssssssssMMssssMLMMcsssssMMMMMcscMMsssss666ssssssssr6rss6>&r>&>rssr>>>&&&>666>>66666>&>6rrr>",
"scMMMMcsMMMMZMMsscssssMMsssssscssMMZMssMMsyss6ssMMcssMMMMMMMssslssscMMMZMcsssMMccsssscssMMMMcssMrssr6666rrsrrrrssrrrr6>>6>&>szr6&>6r6>&@>>>>>>>666rrsrr66",
"cMLLMMcMMMMLLZMsssssscMMMcssssssssMMMMMLMsyy66ssMMMssMMMlvvlsslMssscMMMMssssMMMMMssssMMMMMMMMssMszsr6666rrrrrrrrssrrr66>&&>6rssr66>&&&>>66>>>>>>&6rsr666>",
"ycZZsssMMMZZLMsssssssMMMcssy6sssMMMcssMZMssssssMMMMcsMMMlvvswuvAssscMMssy666sscMsss6ssMMMMMMMMMsszzr66666rrr66rrrrr66>>&&>rrrrrsr6&@&>6666>>>>>6&6ssr6>>6",
"&yMMssMLMMMLZss6ssy6ssMMssssssscMMMsssMMMssssMMZMMMvssMMvMMlwwssssssssss&&&&6666ss66yssMMZMcMZMcszsr666>6r6666rrrr666>&&6rss6>>6>&&&>6>>6>>>>>66>6ssr6>>r",
"66sMMMMZZZLLMs66ssy6sMMssssMMMcMsscssMMMs666cMMcMMMMssscMFFvuuw6ysssssy6<&6666666sssssscMMMssMZMsss66r666666666rssrrrr6>rrrr6>>>&&&>r6>@6>>&&>>6>>>6rrr66",
"ssssMMcsLZLLMs6ssssssMMcssMMsssssssssMMcs666cMcsssMMssscMFFMvvu16sssssy6<<6666yy6yssssssMcsyysMMssr66rr66>>>6rsrssrrrr6666666666&>>666>&r6>&&&&&&@@>rsr66",
"ssssss66MMMZMs6sss6sMLMsssscsssscMc66ss6yyyssssssscMssssMFFMMAl6sssssssy6666666sysss66ssMsss66sMMMsssss666&66sssrrrrrr66>>>>6666666r66>>rr>&&&&&&&&>6rr6>",
"MMss66yssssMs66s666sMLMscMMMMMMMcMs66ss66yss66yssscMsssMAFAMALM6sssccssssy6666sssMMcsssMMsss666sMMMssss66&&<6sssrrrrrrrr666>>&>66rssr6>>rr>&&&&>&>6rr66>@",
"MMssssssssMMs6y6s6<6sMMMMMMZLLLMsMss666&6sssscsss66MZMccvMMMMMvs66sMMccMsss66sssMcsssscMss666666sMMss66s&&&&66ssrrrr666r>rzs>@&66rszzrrrs6&@&&&&>>>>6rr>&",
"ssyyssMMMsMMs666666ycMMMMMMMMLMssMMs6y666ssyscsss6sMMccMMMMMvMvu66yssssMMMs66666Mcsssssssssss666ssMss66y66<666sssssrrrrrrrr6&&&>66rzzs66&&&&&&>>rr66rsr6&",
"sy6yyssMMcMM6&66666sMMMMMMsssMsysMMs66ys66sssscs6ssMMssMMMMvvvvvs66sssMMMsssy6ysMMMssssssMMMcsysyssssy666sy66ssMMMsss6sssss66&&&>>rszr6>@&>>>>6rrr66rsr>&",
"s66ssssMssMMy6ss6<6sMMMMLMsscMs6ssss6sss6sssssss6sMMs6scMMvvvvvMMsssMMMMc66sy6ysMMMMMMssMMMLMsss6yssssy6sss66sMLMMss66yssssss6&&66rss6>6r66>>>rsr666szs6&",
"<&<scMMLsMMMs6ss666scMccZMMMMMssssyssMMssssssscsscMMssssllvvvvMMMMMMMMMMMsyssyssMMMMMMMscMZLZcss666yss66ysss6sMMMMMsssssssss6666rsss6&>6sr6>>6rrr66rzMzz6",
"666ssMMLMMMMsyssy66sscsscscMMMsss6<6sMMsscssssssMMMMMsssssslvvvMMMMMMMMsMsssccMMLLLMMMssssMZZMss<<&66s666ssMcsssMMMsssscsss6&6yssszs6&>r66>6r6>&6>6rzzzzr",
"scs66sMMLMMs6scssy6sMsy66ysMMsss66&&ycssMcsssssssMMssssssssvsssMMZZMMMMcccssMMLMMZZMMcsssssMZMss6&&&6ss666sMMs6sMMMssssssy6666sszsrr6>>>&&>66>>&>>>rsrszs",
"scs&6MLMLMcs6cMMsssMMs66yssMMscMss666sssMssss6ssysss666sssslsusvMZLMMMMMMMMssMMsMMMMcsssssscMMMcy6&66sss6&6scs6csssssssss66ssMs6zr6rr6>&&>>>&&>>66rssrszs",
"sy66ssMLLMysMMMssssMMcssMsMZLMss666sssssLMs66sss6ssssy66scMss6ssZMMMMLLMMs666666sMMMMcssMs6ssMMLs&6s66ss666ysssssssssMss666sssMMzsrr66&@>&&6rr>>rr666rsss",
"sy66ssMLLMccZZsssssMMsss6sLILMsM666ssssMMMsssscMssccss666scssssMscMMMMMMMMsscssssscssssscs6sssMMs<6ssscsssy666sssssscMss6&<ycMMMMMzs6>&@>&>rrr66srr66rrsz",
"Ms6sssMZLZMMMMs66sMMcssssMLLLssss66ysssMMMMcscMMMMMMsss66ssMsssc6sMMMcMMZMcMMMssssssssscs66yyssMc66sssMsMcs666666666ssss6&&6MMMMzzzsr>&&&&>6r66rssrr666rr",
"MsssssMZLMMscsssssMMMsssLcscMMs6MssssssMMMMMcssMMMMMMcssssssssss6ssMMMMMMssMZZMMsssssssMssysssssM66sMMMsssss66&&<&&666ys6666ssssrrss6>&&@&>66>6ssssrrrrr6",
"MssssscMLMMMcsssscMMMsscLs6sLLMssssccssscMMMcsssMMMMMMsssssy66ysssssMMMMZMsMMLLLMMcccsMMssssssssMsysMMMssssss6<&<&&6666s6666ssssssss6&@&>>6r6>6ssssssssss",
"MsscsscMLLMMMcsyscMMMMssMscMLMMMssssssssssscssssMMMMMMMcssy666ssssysscMMMsscMMMMMMMMMMMMsMMsssMMMMssMMcMMMMsssy66<&66&<666ssysssrrrrr>>rrrssr66r6sss66sss",
"ccMMsssMLMMMMss6cscMMMsscMMLMsscsssccsssssssssssscMMMMMMMssy66sssssssssssssssscMZZMMssMMsMMsscMMsMssMMcMMMMMcssss6666&&<6ssssssss66ss66s66sss66s6ss666yss",
"scMMsssMZMs6sssscsscMMssMssssscMMssMcsssssssssssssMMsscMMMsssssssscssssMyssMMsMZLZMsssMMsMMsscMMsMssMMcLscMMMMsscy666&&6sssssMcyLs6s6&&&&&6sssssss66&&66s",
"LMssscMMMssMssMMMMcsscMMssssysscsMMsssssssssss6ssccssMMLMsss66sMsscs6sM6&yMMMMccMMMsssssssssssMMsMZssMMMMMssMMMMssysy666s6ysMMMssssss6&&<&66666s6ss&#&66s",
"MssssssscsssssMMMMMcccMMsssssssMMMscMcssssssMssMMMMMMMMMLsscssssssMsss6&666scMcsssssssssssssscMMsMLMMLMMMMMMMMMMsssMMsssssysMMMsssscsy6666sss6ysss6&&&66y",
"ssMsssy6ssMcssMMMMssssssssssssMMMssMZMssssscMMsMMMMMMMMMZssssssssMcsss6&66<6ssssssssssscsssscMMMscLMMMccsssscMcMcMMLLMMMsy66sss66ssssysssssssssss6<66ysss",
"MMMMs6ssssMMsssMsssssssssssssMMMMscLZs6sysssMcscsscMMcMMMscMMsMssMs6ss6sy666yssssssssysccsscMZMMcsMs6MscssssssssMMMZMMMMMs666666&<6666scMMsssssMy<&6sssMM",
"cMZMsssssyMLc6sMsssssssssssscMMcMMMLM66sssssMsscssssssssMcLLMMMZcMs6Mcys6yssy6sssssss6ysssssMMMMMsMssMsMscccMMccMMMMssscLMs66666&&&&66yyMMssssss<&<ysyycM",
"ysMZMsy6ssMLMscMsMMMMsssssssMMMcMMMMs66sssssMssssssssssyssZLssMZMLMMMMsy6sssy666csysssssssssMMMMssMcsMsssscMMMcsssssssssZMs666666&#&66y6ssMMMss6#&<6y66yy",
"6sMMMss6sMMMsMZMscccccssssscMMMMMMMcsyssccsssssMMcsssssscsMZssMMLMMLMMMssssssss6s66yssssssscMMMMsscscMsssssMMMcsscss6ss6css666yy6&&&66ss6scMccs6<<<<<66<6",
"sssssssssMM6&sM6ssssssssMsscMMMMMMMssssscs66s66MMssssMMsLMMLMMMMLsMMMMLZMsssMMsss<&6sscMscMMMMMLMscssMsMssMMLMMcMMMsssy6sss6sssc666666ss6ssssccsss6<6yy<6",
"rszzr>>6>zM66MMsssssssssMMMsMMMsMMsscMMMs66MLMscMMsccMMMMMMMMsMMMMMMMMLLMcsMZMssssssssMMMMMLLLZZsssssMMMMssMMMsMMMMMMMssvvu11slluw6116wuwuvvlu66ssssy66y&",
"6rssr>>66zMssMMsMMMMMsssMMMcMMMMMcsysMMMc66MMMssMMMMMMMMMMMMMMMMMMMMMMLLMcsMLZMcssssssMMMMMMMMMMsssMMMMMcssMMMMZMMsscscsssw66svlsuw666wu16ww6611sssssyysy",
"66ssr>>6szMsMMMMMZZMMcssscccMMMMcss6ssMMMsscMMssMMMMMMMMMMssccMMMMMMMMZZMcMMLLMMssssssscMMMMccsssssssssssssMMsMZMMsssMMMssu6wslswww666666666666666ssssssM",
"66ssr>>6szMMMMMMZZZMss66sssssMMMMcs66sMMMsssMcssMMMsssssMssssccMMcMMMMMMMMMMLLMMcsssssssMMMMcssssy66<66ssscMcssMMcsssMMMMlswwuuuwwuuuw66ssuuwwwu&16sMMMMM",
"rrssr666rsMMMsMMZLLMsy66yssssMMMMMs66sMMMssssMsssMMssccsMsssMMMMccscMMMMMMMMMMMscssssccsMMMMMss6ssss66yssscMsyyssssscMMcMlu66wusslvvlsuusssuuw61&66sMMssc",
"ssszsr666zMMssMMZLLMss66ssMccMMMMMMsssMMsMsssMccsMMssMMscssscsMMcssscMMMZZMMMMMsssssMMMMMMZZMvs6ssMMsy666yssssss66ysssssMs666wusvvvvlssslsssuu6166ucMss6s"
};
