/* XPM */
static char *_0949_3701bb862595f78d3eaaf896c279c6d270f975cde95b25d034e85afc3a6e26d3[] = {
/* columns rows colors chars-per-pixel */
"64 64 102 2 ",
"   c #061E0A",
".  c #07230C",
"X  c #09230E",
"o  c #0D2511",
"O  c #0E2A14",
"+  c #122B16",
"@  c #152E19",
"#  c #182E1B",
"$  c #0F3117",
"%  c #133217",
"&  c #15341B",
"*  c #1A341D",
"=  c #17391D",
"-  c #1A3B1E",
";  c #1D3621",
":  c #173D21",
">  c #1B3C21",
",  c #213D24",
"<  c #1D4224",
"1  c #1F4529",
"2  c #1F482A",
"3  c #214526",
"4  c #224826",
"5  c #224629",
"6  c #254B2B",
"7  c #294D2D",
"8  c #29512F",
"9  c #264F31",
"0  c #294E30",
"q  c #275131",
"w  c #2C5333",
"e  c #2D5638",
"r  c #2E5939",
"t  c #315635",
"y  c #305836",
"u  c #305738",
"i  c #345C3C",
"p  c #3A5F3E",
"a  c #2D623E",
"s  c #37603E",
"d  c #38613E",
"f  c #365F41",
"g  c #385F40",
"h  c #2D6442",
"j  c #336543",
"k  c #3C6444",
"l  c #346946",
"z  c #396A47",
"x  c #3D6648",
"c  c #366D4A",
"v  c #3B6C4B",
"b  c #37704C",
"n  c #3B724E",
"m  c #3D7551",
"M  c #3E7953",
"N  c #426745",
"B  c #416947",
"V  c #406748",
"C  c #446C4C",
"Z  c #496E4C",
"A  c #42724F",
"S  c #49714F",
"D  c #456E51",
"F  c #486F50",
"G  c #437453",
"H  c #4C7453",
"J  c #437A55",
"K  c #4B7956",
"L  c #477558",
"P  c #4C7658",
"I  c #457D59",
"U  c #4C7B5B",
"Y  c #517655",
"T  c #517956",
"R  c #507758",
"E  c #537C5B",
"W  c #4E7E60",
"Q  c #537E60",
"!  c #587E60",
"~  c #47815B",
"^  c #4A825D",
"/  c #53815E",
"(  c #58815F",
")  c #4D8461",
"_  c #4F8863",
"`  c #548463",
"'  c #5A8464",
"]  c #538965",
"[  c #5B8966",
"{  c #568769",
"}  c #5B8768",
"|  c #558C69",
" . c #5C8B6A",
".. c #5C916D",
"X. c #5E9271",
"o. c #608966",
"O. c #618D6D",
"+. c #62916F",
"@. c #639372",
"#. c #699574",
"$. c #6C9978",
"%. c white",
/* pixels */
"; O @ + @ 6 O $ O O o X X O # # ; ; @ @ @ @   # @ O @ ; @ , # * o + * X > + + + # % + * % + + * ; - 4 * # # * o + # % * * * + , ",
"  . + @ $ @ & ; @ # O @ o ; O + X # X o + ; ; O O @ X @ * + * +   # + * + ; ; # # > # # # , # - # * + # % % + , * - - - * ; # # ",
"$ $ * : & : ; : ; O > * : ; O ; @ > ; O ; * ; $ > * ; = & - % * * & 3 > & - - & - & % - - - - - 4 3 4 * - - % - - 4 - - - % - , ",
"; ; : > 1 $ : > & & > 5 : : : > @ : : : ; > < > 5 = : : & 3 = 3 > 3 3 5 7 3 , 3 - 3 - - 4 7 , 4 , 3 3 4 , 4 - - - 7 t 4 7 3 , 4 ",
"& : = 1 : 1 5 > : @ @ > ; > > : > > > > > 5 > > > ; > > < < < 3 3 4 < 6 - 3 3 4 - 4 5 5 - 4 4 4 7 3 4 6 3 , < 8 4 4 4 4 4 , - 4 ",
"> : > 1 5 1 9 1 5 : 1 5 > > 1 1 5 > 5 ; @ > 6 > > : < > 3 6 6 < 6 > < 5 4 7 3 7 5 7 4 7 - 4 4 4 7 7 7 5 > - 7 4 7 t 4 7 4 7 < 4 ",
": 1 1 1 1 1 1 : 1 5 : > 5 > , 1 1 > : 1 9 $ > 5 > < 1 3 3 < < 7 < 4 6 6 3 w 8 i 4 7 4 4 8 4 4 8 t 7 7 4 4 8 6 4 7 7 4 7 7 7 7 7 ",
"< 5 5 : 1 5 : 9 9 ; 5 1 > 9 1 > 1 > 5 1 5 > 5 6 q 5 6 6 = < 7 7 3 7 6 w 3 3 3 t 5 4 4 7 4 4 7 8 t t 7 5 3 3 4 7 4 7 8 8 t 4 7 7 ",
": 1 1 < 1 2 < 9 5 : 5 5 > 0 > 1 < < 5 1 5 > 5 5 7 6 5 6 = < 7 7 3 w 6 w 2 4 4 t 4 4 4 8 8 4 8 8 8 a 8 4 4 4 4 4 4 7 8 t t 7 7 t ",
"9 1 1 2 2 e 9 5 5 5 5 > > 1 9 1 5 9 0 0 0 < 9 6 3 < 7 6 q q 6 8 q 3 5 7 t 6 8 8 6 6 8 4 6 4 7 8 8 8 y 4 4 8 4 4 8 8 t t 8 t 4 8 ",
"9 : < 2 9 e q 9 w 0 5 9 9 1 1 5 2 3 3 6 3 6 9 0 w 6 w 0 w q 6 q 7 q 6 w 6 4 8 8 6 t d 8 w 4 8 4 y 8 w 8 4 4 8 8 7 d 8 8 t t 8 y ",
"9 : < 1 1 e e 5 w 9 5 9 5 1 5 5 3 3 1 6 3 6 6 0 w 6 q 7 w w 4 w 7 7 4 w 6 4 8 8 8 w p 8 8 4 8 8 8 w w 4 8 8 8 8 7 d 8 8 8 t 8 t ",
"9 e 9 2 9 9 9 i e 0 w 9 e w 0 e e w 0 w 5 w 6 u w 0 e w w 8 y i w w y w 6 y 8 t 6 y t s 8 6 y w y s w s 8 t 8 8 y y d d t 7 8 p ",
"9 q q 9 e i w 6 w w 6 w 9 w e e 9 0 u 3 e u 0 0 w 0 u w y w t y 7 d y w y t a y 8 s s 6 s t s s N d d y y y 4 y y d t d p 8 t p ",
"e e f 9 w 9 i e w i w u i 0 w 0 u 0 w w u i u 0 u w e q i y y 7 t q d w d y s y a d 8 s 8 s t d d d s w y d y d d d d d d t y p ",
"e q 9 e f i 9 u w u u w 9 f 9 0 i g w 0 u e i w u u i w i p y i s r e p d d y t d s d t s y y d B N d y d d 8 d y N d d N d y y ",
"e e e q r i e p f e g i i u u 0 f p i e f g i f 0 w g g k i i k k f g f w s s k d d N N Z s y d d d d d d d N s d N Z y d s d d ",
"i r r r e e r i f u 0 x e i f i i i i i i i i u g V g g f k i k k k k i k k x k d d k d d d d B B d S B d d y N B B Z B d d d d ",
"i r r i e i f j g f u u e f f f j i u f u V g i i g i i k x k k V k k Z k k x B s S d a d d d B B Z d A d d B B B S d Z N d d Z ",
"k i e k f f x i g f V f i V x f f D i V f C f V C C g x g V N k C C H N k V Z k B S S B S S H S S S d Z B A N B Z B ~ N d Z d Z ",
"k u g k u k k k g x F V V g x f f V g F C g N k C f x g k S S Z C S S V p V V H B S S S Z k S S S K A B Y B N B Z Z ( Z S Z N Z ",
"k f i g k x x f g Z V V g V D D V V k C C F N C k k F g C x k Y N S S C V j N Z S K K S S S S H ( S S Z S S Z Y ~ Y Z Z ~ N N Z ",
"k C x V V V f k C g C C D C F C D f x F F Z k P Z V k D V Z C H S T S k Z C K S Y T N C S N B S S ( Z T A S B / Z ( Y ( ( Y Z N ",
"k k F V C C C g C V F F g k V C C F C Z F Z F H D C H H Z H S C S H S H Z Z B B S Y K S S S Y / / S S S S N T S Z ( ( Y N Z Z N ",
"x k F V V C V g Z V F F g V C C F F C C F S H H Z Z L F F Y F Z S H H S Z Z V V S Y Y S Y Z Y T Y Z / S Z N Z / Z ( ( Z N Z Z Z ",
"k V F V V D F V f g F C C g g F C V F H H Z S H H Z F H F F Z H T E T T H F H R S ( / S Y Y S S ( ( Y Z / Z / Z Y ( ( Z Z Y Z ( ",
"N C V k V C C Z C V V F F H H R C F F F H R H H P C C F F R Y T T ( E T V H H H T K Y Y K S Y K / Z / Z Z Z Z Z ( Z / ( Z N Z / ",
"C C H H Z H V F F C C R R H R H F F F P S H R R Y R E R Y H E ' E ( ( ' R H H S ( Y T T K T S T ( / ( S / ( / ( Y ( ( ( ( ( Z ( ",
"C C C C F Y F F C H R F R F F H R H F ! F ! R P R F P P P C E ' ( E E E K R R R S T ( / S / ( Y ( ( ( ( Z / Z Z ( Y ( ( Y ( Y S ",
"F Z F C F C F F R F C F R ! F Q R F F ! R ! ' R ' R H H R R R o.' ! } ' K H E E / ( ( / Y Y ( ( / ( ( Z ( ( / ( ( ( ( ( Z ( Y ( ",
"C D P C F H Y H F Z H R F R R ! F F P F ! ! ! ! P R P ! R E ' } ' E o.' E E P C / / ( ( ( / ( ( ( ( / ( / S ( ( ( ( o.o.Y ( ( S ",
"H Z P Y R P F H F F F R R ! ! R R Q ! ! ! ! ' ! ' ! E E P E E E o.' o.( ' E R K / / ( ( ( Y ( ( o.( ( ( ( ( ( ( ( ( o.( S ( ( / ",
"F Y R F Y C R P H F H R E P E P P D E R E ! ' ' ! P ! P Q E ' E ' o.o.} E ! P H E  .O.' E E ! } E ' ( E T R ( ( ' T o.o.[ / Y ( ",
"F P C P F E P H P F H R H E D E E ! P E ! E ' ` ' ! } P U E ! ! } ! o.' } R U E U ' } ' ' E E E } E } ' E E ' T [ ( ( [ T ( T K ",
"F P Z P H E T H H Z F R H E H E E Q P R E ' ! E ' Q } R Q R Q ' } ' O.o.} P E Q U ' ' ' ' E E E  .E } ( / E ' T ( [ ( ( / ( T / ",
"F Z Z H H R R R P H P R E ! E R R E L ! ! ` ` ' ' ` Q ! { Q ! } ' O.O.+.} } U Q ' O.' ' ` o.'  .' ( ' } ( / o.[ / / ( [ / T T K ",
"F F R E S H H G H H H R H P E ` P P R Q Q ` ' ' } Q Q Q Q Q ! } O.o.O.+.O.` E P ` { ' O.P  ./ ' ' [ ` ' E '  .( ( ..( ( / ( Y K ",
"P F C R S G H E V P H H E E U U ! L Q Q ' Q } ' O.Q Q Q P W { { O.@.#.o.' { { P ` ` ' `  .' ` ' O.'  . . .` ' [ ( / / / / T / / ",
"F H H V S H P H H V P G E ` P ` Q R P R Q o.! } } { Q { Q ! ` Q } O.#.$.+.O.` E ' } ' (  .}  .} @.' O.U E ' `  .[ [ +.[ ( / / / ",
"Z G C E U U P U E ` Z P H E ` ' Q W Q D Q Q Q } ! } o.{ U ` Q { ! } O.+.@. .{ ` ' +.+.' }  .[ [ +.O.' ( ( E ` ( o...o.[ / ( K / ",
"C P x K G K K P Z L G P U ! Q Q { R P L ` Q  . .` } ! W P Q Q } } O.@.$.@.O.} P {  .} O. .' ' [ ( +./ ..[ ( o.( [ ..[ / ^ ~ ( ~ ",
"Z H x P H K U P G H H H P ` W ! } P P L ! Q } O.` ' ` U W Q Q } } O.@.#.#.+.} P { O.' O. .' ` ' [ +./ +.] ] [ [ [ [ o./ / / ( / ",
"C C L P K H H K G P D G G ` U U P ! W ! Q Q } } ' { W ` L W W ` } #. .@.@.@.} { P  . . .+. .'  .+.[ [ ] ( o.o._ / [ [ / ( ~ ~ ( ",
"D G S H U E K K P L D C U E ! U Q W Q P Q {  . .` } ` U W P { Q Q O.O.#.@.X. .{ ` +.@. .` +.[  ...+.( ] [ [ ] [ [ [ ..] / / ~ S ",
"C S B H L K U K G K P C L { U { Q U U U Q { ` {  .` ` L W W { W X.} X.$.@.@...` `  . .} ` { ]  .+.[ ] / ] ( ..[ o...[ / ~ S / S ",
"x x G G H K P G U H L G P U E Q Q ` U P P Q ` } { { ` W W W { { { X.@.$.@.@. .W ^ { X.X.` `  ...] [ ] [ / +.[ ] ..] ] _ ( / / ~ ",
"K G S G G G U A K U G H L U U { U U U L P W O.{ W ` { W W W ) { { { @.@.@.@.} { U  . .@.` ]  .@.[ ] ] / ( _ o.] ] ..^ ( ~ / / ~ ",
"A p x A H K G G U H G v L J U Q I P U L L P ) ` { ) W W W W { W W @.X.@.@.X. .W ] { X.X.] {  . ..._ [ ^ ] _ ] ..] ] ( ~ / ^ A B ",
"C x x G U J E S ^ K L A K J P P L W G P G W { ]  .| ) W W W I W )  . .@.@.X.X._ ) ) X.#.@.{ | ] ^ [ ] ^ ] ] ] | ]  ./ ] / ^ J S ",
"n x x G E ^ G ^ U G G A L K U ^ { L L G P W W ` `  .) U W W { W | | X.@.@.....) ) I ) | ..] ) _ ....#...] / ` ] ^ ] ^ / ^ / ~ n ",
"x z v P I A K I K G J v L G L ^ W L v L G L ] ] ) ] ) ] I L I W ) { | X.X.X...X.) | | ] ] | _ ..] ] ^ ] ] ^ ^ ] / ^ | ^ A A ~ S ",
"z C A l K A n K J A A z v v L J m L L L m L U W { ) { I I L m W U ) ) ..X.X.X...{ ) | ] | | ) ..] ] | ^ ] ^ ] ^ _ ^ ] ~ ~ ~ M A ",
"v x z z v G A A G m m m z v m G I m L m m W I { ) ) _ ) I m m m ) W | | ....X._ I I ) ) ..~ ) _ ] / _ _ ^ ^ ^ ] ^ ^ ~ ~ n M ~ a ",
"n k x n v G A J G m D v z v x m M L m b c b W I _ { I m I b m W J W ) | ..X.| | ] ) _ _ X._ _ _ | ] | ] _ ^ _ _ _ ~ / ~ S A ~ a ",
"v v s A v n A J A n j v l G v n m L L v c m I ) ) I I ) W b M m W ) I _ | _ | | M ) ) ) ~ ~ _ ~ ^ ^ ^ ^ ^ ~ ^ ] ^ ] ~ n ~ n d b ",
"B v a n v n A J G v j v j m v v L m L c j L W ) ) I I ) W b M I W ) ) _ | _ _ | ~ ) ) ^ ~ ~ _ ~ _ ^ ^ ^ ~ ~ ^ ] ^ _ ~ A ~ M d a ",
"A A z z A v z J J n l m j G m v m m L v b L I ) I W | I I L m I M I I | _ | X._ ] _ ~ ~ | ~ ~ _ ] _ ~ ~ ~ _ ~ ^ _ ] ~ ~ d M d a ",
"B z z z A v l I G n j m j D m v m m m b c L W ) ) ) _ I W M m I m ) M | _ | X._ ] _ _ ~ ] ~ ~ ^ ] ^ ^ ~ ~ _ ~ ~ _ ] ~ ~ ~ d M a ",
"z j z v l n n z G l z z j l v m L c b L h L L I ) ) I _ I b M m M M I _ _ | | | ] ^ ~ ~ _ ~ ~ ~ ^ ] ~ M ^ ~ ^ ~ ~ ~ ~ ~ ~ ~ n a ",
"z s l a z n n l n j c h v c m v m m m b v b I m M I I M m b M b m m M m ) _ ) ) ^ M M M ~ a ^ ~ ~ M ~ ~ M n ~ M ~ ~ ~ d M a a a ",
"l l r a c b c b c c c h l h v m M b b c h b M M M ~ M I M m h b M c M b M ) ) I ~ a ~ M ^ n M ~ ~ M M M M M b ~ M M J n a d a a ",
"a a l l l c l h m c h h h h c c m M b b b b M I ~ M b I M h b b M b b M ~ ) ~ I ~ M a ~ M M J ~ M ~ M M n l ~ b c n a l b a a %.",
"z l l l c h l c b l h h c c j b m b b c h c ~ I M M I b m h h c b M b M ~ ~ ~ ) ~ b b n n ~ ~ M M M ~ M M M M M ~ c b l a a l %.",
"a a l a h b b c c c c c j h j h b b c c h h M M M I I b b m h c b c b b b M M M ~ ~ b b n ~ M ~ M M M M M M M M n l n l l l a %."
};
