/* XPM */
static char *_762c0c51ac347308ae0ef4eccaf3944h31aoygaOWhKgkt2[] = {
/* columns rows colors chars-per-pixel */
"31 79 136 2 ",
"   c #000000",
".  c #0B0101",
"X  c #070808",
"o  c #0B0B0B",
"O  c #120201",
"+  c #1B0302",
"@  c #131314",
"#  c #1D1D1D",
"$  c #230403",
"%  c #2C0504",
"&  c #2D0A09",
"*  c #310503",
"=  c #3D0704",
"-  c #3C0806",
";  c #222222",
":  c #2C2C2C",
">  c #343435",
",  c #3F3F3F",
"<  c #460704",
"1  c #490604",
"2  c #470806",
"3  c #4D0906",
"4  c #560705",
"5  c #520805",
"6  c #510A08",
"7  c #660B07",
"8  c #630C08",
"9  c #740B06",
"0  c #740D09",
"q  c #7E0F09",
"w  c #414241",
"e  c gray29",
"r  c #534746",
"t  c #4F5050",
"y  c #535353",
"u  c #626363",
"i  c #6D6D6D",
"p  c #747474",
"a  c #797B7B",
"s  c #880C07",
"d  c #960D07",
"f  c #990E07",
"g  c #900D08",
"h  c #9D0E08",
"j  c #85110D",
"k  c #88110B",
"l  c #92100B",
"z  c #9E100A",
"x  c #9E1C15",
"c  c #A30E09",
"v  c #A90F09",
"b  c #A5100A",
"n  c #AD120B",
"m  c #B3120B",
"M  c #BC140C",
"N  c #A9211D",
"B  c #AC342F",
"V  c #C3150E",
"C  c #CA160F",
"Z  c #D1170F",
"A  c #D2180F",
"S  c #C01711",
"D  c #CE1710",
"F  c #C61912",
"G  c #D31710",
"H  c #D51811",
"J  c #DB1A12",
"K  c #E31B13",
"L  c #EB1C14",
"P  c #EC2017",
"I  c #EE2218",
"U  c #F12118",
"Y  c #C62621",
"T  c #C22F28",
"R  c #EE3127",
"E  c #AC403C",
"W  c #AD5752",
"Q  c #A87E7E",
"!  c #F35C56",
"~  c #F4847E",
"^  c #7F8080",
"/  c gray51",
"(  c #8D8E90",
")  c #959796",
"_  c #989898",
"`  c #B78684",
"'  c #9FA1A0",
"]  c #A3A4A4",
"[  c #A7A9AA",
"{  c #B3B5B6",
"}  c #BDBEBE",
"|  c #CC908D",
" . c #CEAFAE",
".. c #F5B0AE",
"X. c #F5BAB8",
"o. c #C3C5C5",
"O. c #C6C9C9",
"+. c #CBCDCD",
"@. c #D0C7C8",
"#. c #DDCECD",
"$. c #CDCFD0",
"%. c #CED0D1",
"&. c #D3D5D5",
"*. c #D6D8D7",
"=. c #D5D7D8",
"-. c #D7D9D9",
";. c #DBDCDC",
":. c #E3CAC8",
">. c #F2C9C8",
",. c #ECD7D6",
"<. c #E7DEDE",
"1. c #F5D3D2",
"2. c #DFE0DF",
"3. c #DEE0E0",
"4. c #E3E4E4",
"5. c #E7E8E8",
"6. c #EAEAEA",
"7. c #ECECED",
"8. c #EBEBEB",
"9. c #F7EDED",
"0. c #F9EFF0",
"q. c #EFF0F1",
"w. c gray94",
"e. c #F1F1F1",
"r. c gray95",
"t. c #F6F6F6",
"y. c #F6F6F7",
"u. c #F4F4F4",
"i. c #F7F8F7",
"p. c #F9F9F9",
"a. c gray98",
"s. c #FAFBFB",
"d. c gray99",
"f. c #FDFDFD",
"g. c #FEFEFE",
"h. c white",
/* pixels */
"                                                              ",
"                                                              ",
"                                                              ",
"                                $                             ",
"                                3                             ",
"                              . k                             ",
"                              + n                             ",
"                              * M O                           ",
"                              4 D %                           ",
"                              9 H 6                           ",
"                              s H k                           ",
"                            O d G S                           ",
"                            % b G J                           ",
"                            < m Z J .                         ",
"                            9 m Z J +                         ",
"                            z m D J =                         ",
"                            m M D H 8                         ",
"                          . M M C G l                         ",
"                          + M M C G M                         ",
"                          = V V C C C                         ",
"                          7 V V C C C +                       ",
"                          l C C C C C =                       ",
"                          m C C C V V 7                       ",
"                          D C C V V V l                       ",
"                        + A Z Z V M M n                       ",
"                        2 G H H V M M m .                     ",
"                        q H J H V M M M +                     ",
"                        n J J J V m m m *                     ",
"                        V J J J V m m m 5                     ",
"                      O J K K K V m m m 9                     ",
"                      $ K K K K M n n n g                     ",
"                      3 K K K K M n v n h                     ",
"                      0 L L L L M v v v c .                   ",
"                      n L L L L M c c c c &                   ",
"                      F L L I R T N c c c 1                   ",
"                    . J U ! X.1.,.:.| B c 9                   ",
"                    + P ~ 0.f.f.f.f.w.#.E f                   ",
"                    - ! 9.f.f.f.f.f.f.w. .x                   ",
"                    j ..p.f.f.f.f.f.f.f.4.W O                 ",
"                    Y >.f.f.f.f.f.f.f.f.6.` $                 ",
"                    Q <.f.f.f.f.f.f.f.f.6.@.r                 ",
"                    u ;.p.f.f.f.f.f.f.f.4.;.w                 ",
"                    > +.4.f.f.f.f.f.f.p.+.q.#                 ",
"                    @ o.&.5.f.f.f.f.p.%.=.p.X                 ",
"                    X { o.+.*.4.4.;.+.=.w.4.                  ",
"                      [ o.o.o.o.$.;.7.y.y._                   ",
"                      ( o.o.o.o.4.y.y.y.y.y                   ",
"                      u O.O.O.O.4.w.w.w.w.;                   ",
"                      , O.O.O.O.4.w.w.w.4.X                   ",
"                      # +.+.+.+.4.7.w.7.&.                    ",
"                      o O.+.+.+.4.7.7.7.]                     ",
"                        } +.+.+.4.6.6.6.i                     ",
"                        ' %.%.%.4.6.6.6.,                     ",
"                        p &.&.&.4.4.4.4.#                     ",
"                        e &.&.&.3.4.4.4.X                     ",
"                        ; =.=.=.2.4.4.}                       ",
"                        X =.*.*.;.4.4.^                       ",
"                          %.*.*.;.3.3.y                       ",
"                          ] ;.;.;.;.;.:                       ",
"                          i ;.;.;.;.;.X                       ",
"                          w ;.;.-.-.o.                        ",
"                          ; 4.4.-.*.)                         ",
"                          o 4.4.-.=.u                         ",
"                            4.4.-.&.>                         ",
"                            o.4.-.&.@                         ",
"                            / 6.*.O.                          ",
"                            y 6.*.]                           ",
"                            : 6.=.a                           ",
"                            @ ;.=.t                           ",
"                              O.=.#                           ",
"                              ] +.                            ",
"                              p ]                             ",
"                              w p                             ",
"                              ; e                             ",
"                              o ;                             ",
"                                X                             ",
"                                                              ",
"                                                              ",
"                                                              "
};
